# xmcd
#
# Track frame offsets:
#	150
#	50770
#	94755
#	170452
#	250582
#
# Disc length: 4254 seconds
#
# Revision: 1
# Processed by: cddbd v1.5.1PL0 Copyright (c) Steve Scherf et al.
# Submitted via: CDex 1.50Beta5
#
DISCID=39109c05
DTITLE=羽田健太郎 - 題名のない音楽会21 20世紀の名曲ベスト30 Disc 1
DYEAR=2001
DGENRE=Soundtrack
TTITLE0=羽田健太郎/「ピアノ協奏曲第2番ハ短調」より第1楽章“モデラート”
TTITLE1=東京フィルハーモニー交響楽団/「交響曲第5番嬰ハ短調」より第4楽章“アダージェット”
TTITLE2=東京フィルハーモニー交響楽団/「春の祭典」より第2部“いけにえ”
TTITLE3=羽田健太郎/ラプソディ・イン・ブルー
TTITLE4=東京フィルハーモニー交響楽団/ボレロ
EXTD=
EXTT0=
EXTT1=
EXTT2=
EXTT3=
EXTT4=
PLAYORDER=
